<?xml version="1.0" standalone="no"?>
<!DOCTYPE svg PUBLIC "-//W3C//DTD SVG 20010904//EN"
 "http://www.w3.org/TR/2001/REC-SVG-20010904/DTD/svg10.dtd">
<svg version="1.0" xmlns="http://www.w3.org/2000/svg"
 width="213.000000pt" height="213.000000pt" viewBox="0 0 213.000000 213.000000"
 preserveAspectRatio="xMidYMid meet">
<metadata>
Created by potrace 1.11, written by Peter Selinger 2001-2013
</metadata>
<g transform="translate(0.000000,213.000000) scale(0.100000,-0.100000)"
fill="#000000" stroke="none">
<path d="M1156 1436 c-3 -14 -38 -53 -77 -88 -67 -59 -70 -65 -66 -98 4 -34 3
-36 -22 -34 -14 1 -26 2 -26 3 0 2 -8 4 -18 6 -14 3 -16 -1 -11 -17 3 -11 2
-23 -3 -27 -5 -3 -19 -20 -31 -37 -19 -28 -20 -33 -6 -44 11 -10 18 -10 26 -2
13 13 48 16 48 5 0 -3 -11 -34 -25 -68 -14 -37 -22 -73 -19 -89 6 -34 -8 -53
-46 -61 -16 -3 -31 -12 -34 -20 -13 -34 38 -131 55 -104 4 7 -2 25 -13 40 -28
37 -19 56 29 57 21 1 47 2 58 4 19 3 20 -2 17 -62 -2 -36 -10 -78 -18 -94 -21
-42 -2 -56 30 -22 25 28 81 126 71 126 -11 0 24 56 49 77 l25 22 25 -32 c29
-39 56 -102 56 -131 0 -12 6 -30 13 -40 12 -17 14 -17 20 -3 3 9 2 19 -3 22
-6 4 -10 24 -10 46 0 22 -5 49 -11 60 -5 11 -12 45 -15 76 -2 31 -9 62 -15 69
-7 9 -5 15 10 23 31 17 34 14 29 -32 -3 -28 -1 -47 8 -55 12 -11 14 -8 14 17
0 16 5 33 10 36 6 3 10 1 10 -4 0 -6 5 -11 10 -11 7 0 7 6 2 18 -5 9 -7 30 -5
47 3 20 -1 33 -13 42 -24 18 -28 17 -63 -13 -23 -19 -34 -23 -48 -15 -10 5
-34 12 -53 14 -19 3 -37 6 -40 6 -3 1 10 10 29 22 25 15 31 23 21 29 -10 6 -9
10 4 17 16 9 16 11 2 22 -9 8 -16 18 -16 23 0 14 -26 38 -42 38 -24 0 -39 17
-43 45 -2 23 10 42 66 101 39 42 69 82 69 93 0 28 -6 26 -14 -3z m-116 -626
c-5 -17 -9 -34 -9 -38 -3 -20 -13 -42 -21 -42 -6 0 -6 9 -1 23 5 12 9 25 10
30 3 28 14 57 21 57 5 0 5 -14 0 -30z"/>
<path d="M1286 1433 c-19 -37 -67 -81 -141 -131 -76 -50 -93 -68 -76 -85 11
-11 20 -5 33 24 2 3 35 26 75 52 69 44 113 94 128 145 9 31 -1 28 -19 -5z"/>
<path d="M1170 1398 c0 -7 -27 -38 -60 -69 -33 -30 -60 -61 -60 -67 0 -12 16
0 91 66 34 30 58 82 38 82 -5 0 -9 -6 -9 -12z"/>
<path d="M1273 1341 c-7 -10 -38 -34 -70 -51 -71 -41 -93 -59 -93 -78 0 -13 2
-13 18 0 9 9 44 29 77 46 46 23 65 39 77 66 18 38 12 50 -9 17z"/>
<path d="M1240 1245 c-14 -7 -43 -21 -64 -31 -22 -10 -42 -26 -44 -34 -4 -12
-2 -13 9 -4 8 6 36 17 62 24 27 7 52 21 58 32 14 25 10 28 -21 13z"/>
<path d="M1249 1185 c-3 -2 -21 -6 -42 -9 -20 -2 -41 -7 -47 -11 -14 -9 -13
-25 3 -20 6 2 27 6 46 9 33 5 59 21 50 31 -3 3 -8 3 -10 0z"/>
<path d="M9 1168 c-1 -2 -3 -65 -4 -140 l-2 -138 32 0 32 0 -3 59 -2 59 79 4
c93 4 119 21 121 82 2 61 -15 70 -142 73 -60 2 -111 2 -111 1z m197 -63 c12
-29 -16 -45 -77 -45 -33 0 -59 3 -60 8 0 4 -2 17 -5 30 -4 21 -1 22 66 22 54
0 72 -4 76 -15z"/>
<path d="M294 1121 c-2 -2 -4 -55 -4 -118 l0 -113 110 0 c103 0 110 1 110 20
0 18 -7 20 -85 20 l-85 0 0 30 c0 28 2 30 43 31 23 1 50 1 59 0 12 -2 15 4 11
19 -5 17 -13 20 -59 20 -53 0 -54 0 -54 30 l0 30 86 0 c76 0 85 2 82 17 -3 16
-16 18 -106 18 -57 0 -106 -2 -108 -4z"/>
<path d="M629 1120 c-73 -21 -105 -66 -94 -136 5 -35 14 -50 42 -71 30 -23 45
-27 97 -27 33 0 74 7 90 15 26 12 30 20 30 57 1 24 -3 46 -8 49 -5 3 -32 6
-61 7 -48 2 -52 0 -52 -21 0 -19 5 -23 33 -23 24 0 34 -5 34 -15 0 -26 -50
-35 -107 -22 -37 10 -58 50 -47 91 8 32 54 64 87 61 12 -1 30 -3 39 -4 9 0 23
-8 31 -16 13 -13 17 -12 31 10 15 23 15 24 -17 34 -46 15 -98 19 -128 11z"/>
<path d="M1164 1119 c-7 -13 57 -16 74 -3 14 10 10 12 -26 11 -24 -1 -45 -4
-48 -8z"/>
<path d="M1402 1113 c-53 -26 -56 -91 -4 -111 15 -6 49 -13 76 -16 58 -6 75
-18 56 -41 -16 -19 -91 -20 -129 -1 -25 13 -28 13 -39 -5 -11 -17 -8 -21 25
-35 54 -23 138 -21 171 3 31 23 42 82 19 102 -8 6 -47 18 -86 25 -83 16 -93
22 -67 42 24 17 59 17 108 0 26 -9 40 -10 47 -3 16 16 14 23 -16 36 -43 20
-124 22 -161 4z"/>
<path d="M1624 1116 c-3 -7 -4 -52 -2 -101 3 -83 5 -89 31 -109 36 -27 139
-25 177 3 23 17 25 25 28 113 3 95 3 96 -23 100 l-25 5 0 -87 c0 -101 -7 -113
-71 -112 -61 1 -68 12 -71 109 -3 74 -6 87 -21 89 -10 1 -20 -3 -23 -10z"/>
<path d="M1953 1122 c-58 -18 -82 -73 -45 -104 22 -19 42 -26 100 -34 56 -7
70 -17 52 -39 -16 -19 -91 -20 -129 -1 -25 13 -28 13 -39 -5 -11 -17 -8 -21
25 -35 85 -36 188 -13 204 47 12 48 -19 74 -104 84 -79 10 -97 24 -58 45 26
13 58 12 103 -4 34 -12 58 -7 58 14 0 22 -125 45 -167 32z"/>
<path d="M1150 1090 c0 -13 70 -24 81 -13 5 5 0 9 -13 10 -13 1 -33 3 -45 6
-13 3 -23 2 -23 -3z"/>
<path d="M1154 1055 c11 -8 27 -15 35 -15 11 0 10 4 -5 15 -10 8 -26 14 -34
14 -11 0 -10 -3 4 -14z"/>
<path d="M9 818 c-1 -2 -3 -29 -4 -60 l-3 -58 54 0 c30 0 54 5 54 10 0 6 -18
10 -40 10 l-40 0 0 44 c0 25 -4 48 -10 51 -5 3 -11 5 -11 3z"/>
<path d="M1378 809 c-21 -12 -24 -48 -5 -53 6 -3 24 -7 40 -10 44 -10 33 -29
-13 -23 -22 3 -42 1 -45 -3 -7 -11 20 -20 60 -20 59 0 74 53 18 66 -54 11 -59
14 -44 23 8 5 27 5 42 1 40 -12 46 6 7 19 -37 13 -38 13 -60 0z"/>
<path d="M126 788 c-4 -9 -6 -31 -4 -50 3 -29 7 -33 36 -36 44 -4 60 11 58 53
-1 43 -20 42 -21 0 0 -25 -5 -31 -27 -33 -25 -3 -27 0 -30 40 -3 30 -6 38 -12
26z"/>
<path d="M230 793 c0 -5 7 -17 15 -27 13 -18 13 -22 -7 -43 -18 -19 -19 -23
-5 -23 9 0 20 7 25 16 8 14 10 14 21 0 8 -9 20 -16 27 -16 12 0 12 4 -1 24
-14 20 -14 28 -3 45 16 27 2 40 -17 15 -14 -18 -16 -18 -26 -1 -10 17 -29 24
-29 10z"/>
<path d="M332 753 c3 -44 5 -48 30 -51 44 -5 62 11 64 56 1 31 -2 39 -13 35
-7 -3 -13 -13 -12 -22 4 -41 -1 -51 -26 -51 -22 0 -25 4 -25 34 0 19 -5 38
-11 41 -7 5 -9 -9 -7 -42z"/>
<path d="M440 748 c0 -26 5 -48 10 -48 6 0 10 9 10 20 0 11 4 20 8 20 5 0 17
-9 27 -20 10 -11 25 -20 34 -20 13 0 13 2 -1 16 -13 13 -14 21 -5 35 16 25 -4
44 -48 45 l-35 1 0 -49z m64 23 c3 -4 3 -11 0 -14 -8 -7 -44 4 -44 14 0 12 37
12 44 0z"/>
<path d="M548 794 c-4 -4 2 -18 12 -32 11 -13 20 -33 20 -43 0 -11 5 -19 10
-19 6 0 10 10 10 23 0 12 7 33 16 45 20 30 13 38 -11 12 -17 -19 -18 -19 -34
1 -9 11 -19 17 -23 13z"/>
<path d="M1480 748 l0 -48 46 0 c27 0 43 4 39 10 -3 6 -19 10 -36 10 -16 0
-29 5 -29 10 0 6 12 10 26 10 14 0 23 4 19 10 -3 6 -15 10 -26 10 -10 0 -19 5
-19 10 0 6 16 10 36 10 19 0 33 4 29 9 -3 5 -23 9 -45 8 l-40 -2 0 -47z"/>
<path d="M1584 786 c-5 -13 -8 -53 -5 -73 2 -21 21 -15 21 7 0 26 8 25 37 -2
23 -21 47 -18 26 3 -9 9 -9 16 0 29 8 14 8 22 -2 34 -14 17 -71 18 -77 2z m60
-15 c7 -11 -14 -20 -31 -13 -7 2 -13 8 -13 13 0 12 37 12 44 0z"/>
<path d="M1687 794 c-7 -12 29 -94 42 -94 12 0 46 88 37 97 -3 4 -12 -8 -18
-25 -7 -18 -15 -32 -18 -32 -4 0 -13 14 -21 32 -9 17 -18 27 -22 22z"/>
<path d="M1789 793 c-7 -46 -4 -93 7 -93 15 0 17 87 3 96 -5 3 -10 2 -10 -3z"/>
<path d="M1838 786 c-43 -32 -9 -91 49 -84 43 5 39 26 -4 24 -32 -1 -39 3 -41
21 -4 24 25 38 58 28 11 -3 20 -2 20 3 0 9 -33 22 -55 22 -5 -1 -18 -7 -27
-14z"/>
<path d="M1936 793 c-3 -4 -6 -26 -6 -50 l0 -43 45 0 c25 0 45 5 45 10 0 6
-16 10 -35 10 -19 0 -35 5 -35 10 0 6 11 10 25 10 14 0 25 5 25 11 0 5 -10 9
-22 7 -11 -2 -23 3 -25 10 -3 8 7 12 31 12 20 0 36 3 36 8 0 9 -75 13 -84 5z"/>
<path d="M2040 785 c-18 -21 -5 -45 24 -45 14 0 28 -5 32 -11 5 -8 -4 -10 -30
-7 -23 2 -35 0 -33 -6 2 -6 20 -12 40 -14 27 -2 38 1 46 17 9 16 8 22 -8 31
-11 5 -29 10 -40 10 -12 0 -21 5 -21 11 0 8 12 10 35 6 35 -6 48 6 19 17 -26
10 -51 7 -64 -9z"/>
</g>
</svg>
